<svg xmlns="http://www.w3.org/2000/svg" width="512" height="512" viewBox="0 0 512 512">
  <defs>
    <linearGradient id="bg" x1="0" y1="0" x2="1" y2="1">
      <stop offset="0" stop-color="#0b5a53"/>
      <stop offset="0.55" stop-color="#0f766e"/>
      <stop offset="1" stop-color="#15937f"/>
    </linearGradient>
    <linearGradient id="gold" x1="0" y1="0" x2="1" y2="1">
      <stop offset="0" stop-color="#e6c976"/>
      <stop offset="1" stop-color="#c79a3a"/>
    </linearGradient>
  </defs>
  <rect width="512" height="512" rx="112" fill="url(#bg)"/>
  <!-- subtle star pattern -->
  <g fill="#ffffff" opacity="0.06">
    <path d="M120 110l10 28 28 10-28 10-10 28-10-28-28-10 28-10z"/>
    <path d="M400 150l8 22 22 8-22 8-8 22-8-22-22-8 22-8z"/>
    <path d="M380 380l8 22 22 8-22 8-8 22-8-22-22-8 22-8z"/>
  </g>
  <!-- crescent -->
  <g transform="translate(256 250)">
    <circle r="120" fill="url(#gold)"/>
    <circle r="120" cx="44" cy="-18" fill="url(#bg)"/>
  </g>
  <!-- star -->
  <path transform="translate(330 175)" d="M0 -34l9 24 25 2-19 16 6 24-21-13-21 13 6-24-19-16 25-2z" fill="url(#gold)"/>
</svg>
